# xmcd
#
# Track frame offsets:
#	150
#	13766
#	22714
#	34294
#	44537
#	57292
#	84818
#	98022
#	109718
#	125079
#	147912
#	159212
#
# Disc length: 2310 seconds
#
# Revision: 0
# Processed by: cddbd v1.5.2PL0 Copyright (c) Steve Scherf et al.
# Submitted via: EZCDAudioConverter 2.2.2.1
#
DISCID=8e09040c
DTITLE=Varios Artistas - Jazz And Blues Masters...Disco 2
DYEAR=1900
DGENRE=
TTITLE0=Etta James - At Last
TTITLE1=Ray Charles - Hit The Road Jack
TTITLE2=Sonny Boy Williamson - Born Blind
TTITLE3=Memphis Slim - Little Lonely Girl
TTITLE4=Muddy Waters - Baby Please Don'T Go
TTITLE5=Mississippi Johnny W. - They Call It Boogie
TTITLE6=Elmore James - Dust My Broom
TTITLE7=John Lee Hooker - Boogie Chillum
TTITLE8=Albert King - Born Under A Bad Sing
TTITLE9=Lightning Slim - I'Ll Be Gone
TTITLE10=John Lee Hooker - Boom, Boom, Boom
TTITLE11=Memphis Slim - Easy Blues
EXTD=
EXTT0=
EXTT1=
EXTT2=
EXTT3=
EXTT4=
EXTT5=
EXTT6=
EXTT7=
EXTT8=
EXTT9=
EXTT10=
EXTT11=
PLAYORDER=
